<?xml version="1.0" encoding="UTF-8"?>
<!DOCTYPE svg PUBLIC "-//W3C//DTD SVG 1.1//EN" "http://www.w3.org/Graphics/SVG/1.1/DTD/svg11.dtd">
<svg xmlns="http://www.w3.org/2000/svg" version="1.1" width="32px" height="32px" style="shape-rendering:geometricPrecision; text-rendering:geometricPrecision; image-rendering:optimizeQuality; fill-rule:evenodd; clip-rule:evenodd" xmlns:xlink="http://www.w3.org/1999/xlink">
<g><path style="opacity:1" fill="#9c7d2c" d="M 1.5,-0.5 C 6.5,-0.5 11.5,-0.5 16.5,-0.5C 15.1667,0.5 15.1667,1.5 16.5,2.5C 15.209,2.26269 14.209,2.59603 13.5,3.5C 10.2854,3.90487 7.28537,4.90487 4.5,6.5C 1.23159,5.14508 0.898257,3.31174 3.5,1C 2.5842,0.721579 1.91753,0.221579 1.5,-0.5 Z"/></g>
<g><path style="opacity:1" fill="#69481f" d="M 16.5,-0.5 C 21.5,-0.5 26.5,-0.5 31.5,-0.5C 31.5,4.16667 31.5,8.83333 31.5,13.5C 29.5153,12.9525 27.8486,11.9525 26.5,10.5C 26.7678,8.90097 26.4345,7.56764 25.5,6.5C 22.5,5.16667 19.5,3.83333 16.5,2.5C 15.1667,1.5 15.1667,0.5 16.5,-0.5 Z"/></g>
<g><path style="opacity:1" fill="#9f8632" d="M -0.5,-0.5 C 0.166667,-0.5 0.833333,-0.5 1.5,-0.5C 1.91753,0.221579 2.5842,0.721579 3.5,1C 0.898257,3.31174 1.23159,5.14508 4.5,6.5C 4.16667,9.16667 3.83333,11.8333 3.5,14.5C 3.5,15.1667 3.5,15.8333 3.5,16.5C 2.73209,15.7375 2.23209,14.7375 2,13.5C 1.60123,13.7284 1.43456,14.0618 1.5,14.5C 0.833333,14.5 0.166667,14.5 -0.5,14.5C -0.5,9.5 -0.5,4.5 -0.5,-0.5 Z"/></g>
<g><path style="opacity:1" fill="#fcfcf5" d="M 15.5,6.5 C 16.4816,9.96192 16.815,13.6286 16.5,17.5C 16.5,19.1667 16.5,20.8333 16.5,22.5C 15.5416,22.9528 14.7083,23.6195 14,24.5C 13.2917,23.6195 12.4584,22.9528 11.5,22.5C 11.3718,18.1186 11.7051,13.7853 12.5,9.5C 13.1667,8.16667 14.1667,7.16667 15.5,6.5 Z"/></g>
<g><path style="opacity:1" fill="#f4f43a" d="M 13.5,3.5 C 14.209,2.59603 15.209,2.26269 16.5,2.5C 19.5,3.83333 22.5,5.16667 25.5,6.5C 25.5,9.5 25.5,12.5 25.5,15.5C 22.1445,15.0914 19.1445,15.7581 16.5,17.5C 16.815,13.6286 16.4816,9.96192 15.5,6.5C 15.7148,4.82124 15.0481,3.82124 13.5,3.5 Z"/></g>
<g><path style="opacity:1" fill="#ebec05" d="M 13.5,3.5 C 15.0481,3.82124 15.7148,4.82124 15.5,6.5C 14.1667,7.16667 13.1667,8.16667 12.5,9.5C 10.744,10.5521 10.0773,12.2188 10.5,14.5C 8.16667,14.5 5.83333,14.5 3.5,14.5C 3.83333,11.8333 4.16667,9.16667 4.5,6.5C 7.28537,4.90487 10.2854,3.90487 13.5,3.5 Z"/></g>
<g><path style="opacity:1" fill="#d8cadd" d="M -0.5,14.5 C 0.166667,14.5 0.833333,14.5 1.5,14.5C 1.71481,16.1788 1.04814,17.1788 -0.5,17.5C -0.5,16.5 -0.5,15.5 -0.5,14.5 Z"/></g>
<g><path style="opacity:1" fill="#c1c30b" d="M 12.5,9.5 C 11.7051,13.7853 11.3718,18.1186 11.5,22.5C 8.77898,22.9628 6.11231,23.6295 3.5,24.5C 3.5,21.8333 3.5,19.1667 3.5,16.5C 3.5,15.8333 3.5,15.1667 3.5,14.5C 5.83333,14.5 8.16667,14.5 10.5,14.5C 10.0773,12.2188 10.744,10.5521 12.5,9.5 Z"/></g>
<g><path style="opacity:1" fill="#d1d104" d="M 25.5,6.5 C 26.4345,7.56764 26.7678,8.90097 26.5,10.5C 26.693,14.5662 26.3597,18.5662 25.5,22.5C 25.6716,23.4916 25.3382,24.1583 24.5,24.5C 21.6592,24.4403 18.9925,23.7736 16.5,22.5C 16.5,20.8333 16.5,19.1667 16.5,17.5C 19.1445,15.7581 22.1445,15.0914 25.5,15.5C 25.5,12.5 25.5,9.5 25.5,6.5 Z"/></g>
<g><path style="opacity:1" fill="#c82f28" d="M 26.5,10.5 C 27.8486,11.9525 29.5153,12.9525 31.5,13.5C 31.5,15.8333 31.5,18.1667 31.5,20.5C 29.2821,20.6138 27.2821,21.2804 25.5,22.5C 26.3597,18.5662 26.693,14.5662 26.5,10.5 Z"/></g>
<g><path style="opacity:1" fill="#3d2f1e" d="M 31.5,20.5 C 31.5,24.1667 31.5,27.8333 31.5,31.5C 29.8333,31.5 28.1667,31.5 26.5,31.5C 25.3702,29.6854 24.7036,27.6854 24.5,25.5C 24.5,25.1667 24.5,24.8333 24.5,24.5C 25.3382,24.1583 25.6716,23.4916 25.5,22.5C 27.2821,21.2804 29.2821,20.6138 31.5,20.5 Z"/></g>
<g><path style="opacity:1" fill="#788103" d="M 11.5,22.5 C 12.4584,22.9528 13.2917,23.6195 14,24.5C 14.7083,23.6195 15.5416,22.9528 16.5,22.5C 18.9925,23.7736 21.6592,24.4403 24.5,24.5C 24.5,24.8333 24.5,25.1667 24.5,25.5C 20.9307,26.1889 17.4307,27.1889 14,28.5C 12.5603,27.8524 11.0603,27.5191 9.5,27.5C 7.5,26.5 5.5,25.5 3.5,24.5C 6.11231,23.6295 8.77898,22.9628 11.5,22.5 Z"/></g>
<g><path style="opacity:1" fill="#735c36" d="M 3.5,16.5 C 3.5,19.1667 3.5,21.8333 3.5,24.5C 5.5,25.5 7.5,26.5 9.5,27.5C 8.02561,28.4363 7.02561,29.7697 6.5,31.5C 4.16667,31.5 1.83333,31.5 -0.5,31.5C -0.5,26.8333 -0.5,22.1667 -0.5,17.5C 1.04814,17.1788 1.71481,16.1788 1.5,14.5C 1.43456,14.0618 1.60123,13.7284 2,13.5C 2.23209,14.7375 2.73209,15.7375 3.5,16.5 Z"/></g>
<g><path style="opacity:1" fill="#fa3a37" d="M 24.5,25.5 C 24.7036,27.6854 25.3702,29.6854 26.5,31.5C 19.8333,31.5 13.1667,31.5 6.5,31.5C 7.02561,29.7697 8.02561,28.4363 9.5,27.5C 11.0603,27.5191 12.5603,27.8524 14,28.5C 17.4307,27.1889 20.9307,26.1889 24.5,25.5 Z"/></g>
</svg>
